<?xml version="1.0" encoding="UTF-8"?>
<svg xmlns="http://www.w3.org/2000/svg" xmlns:xlink="http://www.w3.org/1999/xlink" width="454px" height="500px" viewBox="0 0 454 500" version="1.1">
<defs>
<radialGradient id="radial0" gradientUnits="userSpaceOnUse" cx="-750.940002" cy="816.140015" fx="-750.940002" fy="816.140015" r="0.91" gradientTransform="matrix(-409.125565,211.346406,246.628252,476.373672,-508259.09375,-230280.484375)">
<stop offset="0.62" style="stop-color:rgb(59.215686%,29.803922%,100%);stop-opacity:0.898039;"/>
<stop offset="1" style="stop-color:rgb(31.372549%,0%,69.019608%);stop-opacity:0.898039;"/>
</radialGradient>
<radialGradient id="radial1" gradientUnits="userSpaceOnUse" cx="-755.52002" cy="805.619995" fx="-755.52002" fy="805.619995" r="0.91" gradientTransform="matrix(-372.563266,162.149811,358.814878,822.653412,-570026.3125,-540318.75)">
<stop offset="0.15" style="stop-color:rgb(87.058824%,56.862745%,100%);stop-opacity:0.6;"/>
<stop offset="0.68" style="stop-color:rgb(82.745098%,45.098039%,98.823529%);stop-opacity:0;"/>
</radialGradient>
<radialGradient id="radial2" gradientUnits="userSpaceOnUse" cx="-740.710022" cy="815.669983" fx="-740.710022" fy="815.669983" r="0.91" gradientTransform="matrix(-155.195685,204.611031,518.483918,392.477944,-537600.875,-168692.4375)">
<stop offset="0" style="stop-color:rgb(100%,78.039216%,63.921569%);stop-opacity:0.4;"/>
<stop offset="0.83" style="stop-color:rgb(87.058824%,40.392157%,99.215686%);stop-opacity:0;"/>
</radialGradient>
<linearGradient id="linear0" gradientUnits="userSpaceOnUse" x1="225.25" y1="128.630005" x2="212.190002" y2="51.220001" gradientTransform="matrix(1,0,0,-1,0,503.480011)">
<stop offset="0" style="stop-color:rgb(20%,0%,44.705882%);stop-opacity:0.4;"/>
<stop offset="1" style="stop-color:rgb(46.27451%,6.666667%,94.117647%);stop-opacity:0;"/>
</linearGradient>
<linearGradient id="linear1" gradientUnits="userSpaceOnUse" x1="227" y1="117.379997" x2="227" y2="2.96" gradientTransform="matrix(1,0,0,-1,0,503.480011)">
<stop offset="0" style="stop-color:rgb(56.862745%,21.176471%,94.901961%);stop-opacity:0;"/>
<stop offset="0.84" style="stop-color:rgb(71.764706%,41.568627%,100%);stop-opacity:0.14902;"/>
</linearGradient>
<linearGradient id="linear2" gradientUnits="userSpaceOnUse" x1="123.940002" y1="110.910004" x2="0.11" y2="109.790001" gradientTransform="matrix(1,0,0,-1,0,503.480011)">
<stop offset="0" style="stop-color:rgb(56.862745%,21.176471%,94.901961%);stop-opacity:0;"/>
<stop offset="0.84" style="stop-color:rgb(71.764706%,41.568627%,100%);stop-opacity:0.301961;"/>
</linearGradient>
<linearGradient id="linear3" gradientUnits="userSpaceOnUse" x1="256.51001" y1="50.34" x2="442.070007" y2="-103.150002" gradientTransform="matrix(1,0,0,-1,0,503.480011)">
<stop offset="0" style="stop-color:rgb(56.862745%,21.176471%,94.901961%);stop-opacity:0;"/>
<stop offset="0.84" style="stop-color:rgb(71.764706%,41.568627%,100%);stop-opacity:0.2;"/>
</linearGradient>
<linearGradient id="linear4" gradientUnits="userSpaceOnUse" x1="123.82" y1="270.76001" x2="-0.01" y2="270.76001" gradientTransform="matrix(1,0,0,-1,0,503.480011)">
<stop offset="0" style="stop-color:rgb(73.72549%,50.196078%,100%);stop-opacity:0;"/>
<stop offset="0.84" style="stop-color:rgb(92.54902%,70.588235%,100%);stop-opacity:1;"/>
</linearGradient>
<linearGradient id="linear5" gradientUnits="userSpaceOnUse" x1="303.589996" y1="270.76001" x2="454" y2="270.76001" gradientTransform="matrix(1,0,0,-1,0,503.480011)">
<stop offset="0" style="stop-color:rgb(73.72549%,49.803922%,100%);stop-opacity:0;"/>
<stop offset="0.84" style="stop-color:rgb(92.54902%,70.588235%,100%);stop-opacity:0.8;"/>
</linearGradient>
<radialGradient id="radial3" gradientUnits="userSpaceOnUse" cx="-735.51001" cy="817.830017" fx="-735.51001" fy="817.830017" r="0.91" gradientTransform="matrix(-163.308191,252.822867,505.161254,325.61553,-532860.4375,-80484.8125)">
<stop offset="0" style="stop-color:rgb(100%,78.039216%,63.921569%);stop-opacity:1;"/>
<stop offset="0.83" style="stop-color:rgb(87.058824%,40.392157%,99.215686%);stop-opacity:0;"/>
</radialGradient>
<linearGradient id="linear6" gradientUnits="userSpaceOnUse" x1="231.960007" y1="297.769989" x2="226.190002" y2="158.169998" gradientTransform="matrix(1,0,0,-1,0,503.480011)">
<stop offset="0" style="stop-color:rgb(38.431373%,0%,83.529412%);stop-opacity:0.4;"/>
<stop offset="1" style="stop-color:rgb(24.313725%,0%,55.294118%);stop-opacity:0;"/>
</linearGradient>
<linearGradient id="linear7" gradientUnits="userSpaceOnUse" x1="330.200012" y1="177.809998" x2="454.040009" y2="177.809998" gradientTransform="matrix(1,0,0,-1,0,503.480011)">
<stop offset="0" style="stop-color:rgb(60.784314%,32.941176%,99.215686%);stop-opacity:0;"/>
<stop offset="0.84" style="stop-color:rgb(92.54902%,70.588235%,100%);stop-opacity:0.4;"/>
</linearGradient>
<linearGradient id="linear8" gradientUnits="userSpaceOnUse" x1="123.82" y1="182.360001" x2="-0.01" y2="182.360001" gradientTransform="matrix(1,0,0,-1,0,503.480011)">
<stop offset="0" style="stop-color:rgb(58.039216%,30.588235%,96.470588%);stop-opacity:0;"/>
<stop offset="0.84" style="stop-color:rgb(92.54902%,70.588235%,100%);stop-opacity:0.6;"/>
</linearGradient>
</defs>
<g id="surface1">
<path style=" stroke:none;fill-rule:nonzero;fill:rgb(46.27451%,6.666667%,94.117647%);fill-opacity:1;" d="M 384.289062 0.769531 C 411.519531 -4.039062 437.859375 14.039062 443.121094 41.171875 L 445.269531 52.300781 C 450.519531 79.421875 432.691406 105.320312 405.460938 110.128906 L 35.589844 175.421875 C 22.878906 177.660156 10.589844 169.210938 8.140625 156.558594 L 0.921875 119.238281 C -4.328125 92.109375 13.5 66.230469 40.730469 61.429688 Z M 384.289062 0.769531 "/>
<path style=" stroke:none;fill-rule:nonzero;fill:url(#radial0);" d="M 384.289062 0.769531 C 411.519531 -4.039062 437.859375 14.039062 443.121094 41.171875 L 445.269531 52.300781 C 450.519531 79.421875 432.691406 105.320312 405.460938 110.128906 L 35.589844 175.421875 C 22.878906 177.660156 10.589844 169.210938 8.140625 156.558594 L 0.921875 119.238281 C -4.328125 92.109375 13.5 66.230469 40.730469 61.429688 Z M 384.289062 0.769531 "/>
<path style=" stroke:none;fill-rule:nonzero;fill:url(#radial1);" d="M 384.289062 0.769531 C 411.519531 -4.039062 437.859375 14.039062 443.121094 41.171875 L 445.269531 52.300781 C 450.519531 79.421875 432.691406 105.320312 405.460938 110.128906 L 35.589844 175.421875 C 22.878906 177.660156 10.589844 169.210938 8.140625 156.558594 L 0.921875 119.238281 C -4.328125 92.109375 13.5 66.230469 40.730469 61.429688 Z M 384.289062 0.769531 "/>
<path style=" stroke:none;fill-rule:nonzero;fill:url(#radial2);" d="M 384.289062 0.769531 C 411.519531 -4.039062 437.859375 14.039062 443.121094 41.171875 L 445.269531 52.300781 C 450.519531 79.421875 432.691406 105.320312 405.460938 110.128906 L 35.589844 175.421875 C 22.878906 177.660156 10.589844 169.210938 8.140625 156.558594 L 0.921875 119.238281 C -4.328125 92.109375 13.5 66.230469 40.730469 61.429688 Z M 384.289062 0.769531 "/>
<path style=" stroke:none;fill-rule:nonzero;fill:rgb(46.27451%,6.666667%,94.117647%);fill-opacity:1;" d="M 0 439.96875 C 0 473.121094 26.898438 500 60.089844 500 L 393.898438 500 C 427.089844 500 453.988281 473.121094 453.988281 439.96875 L 453.988281 417.5 C 453.988281 384.351562 427.089844 357.46875 393.898438 357.46875 L 60.101562 357.46875 C 26.910156 357.46875 0 330.601562 0 297.441406 L 0 283.808594 Z M 0 439.96875 "/>
<path style=" stroke:none;fill-rule:nonzero;fill:rgb(66.274512%,40.000001%,100%);fill-opacity:0.2;" d="M 0 439.96875 C 0 473.121094 26.898438 500 60.089844 500 L 393.898438 500 C 427.089844 500 453.988281 473.121094 453.988281 439.96875 L 453.988281 417.5 C 453.988281 384.351562 427.089844 357.46875 393.898438 357.46875 L 60.101562 357.46875 C 26.910156 357.46875 0 330.601562 0 297.441406 L 0 283.808594 Z M 0 439.96875 "/>
<path style=" stroke:none;fill-rule:nonzero;fill:url(#linear0);" d="M 0 439.96875 C 0 473.121094 26.898438 500 60.089844 500 L 393.898438 500 C 427.089844 500 453.988281 473.121094 453.988281 439.96875 L 453.988281 417.5 C 453.988281 384.351562 427.089844 357.46875 393.898438 357.46875 L 60.101562 357.46875 C 26.910156 357.46875 0 330.601562 0 297.441406 L 0 283.808594 Z M 0 439.96875 "/>
<path style=" stroke:none;fill-rule:nonzero;fill:url(#linear1);" d="M 0 439.96875 C 0 473.121094 26.898438 500 60.089844 500 L 393.898438 500 C 427.089844 500 453.988281 473.121094 453.988281 439.96875 L 453.988281 417.5 C 453.988281 384.351562 427.089844 357.46875 393.898438 357.46875 L 60.101562 357.46875 C 26.910156 357.46875 0 330.601562 0 297.441406 L 0 283.808594 Z M 0 439.96875 "/>
<path style=" stroke:none;fill-rule:nonzero;fill:url(#linear2);" d="M 0 439.96875 C 0 473.121094 26.898438 500 60.089844 500 L 393.898438 500 C 427.089844 500 453.988281 473.121094 453.988281 439.96875 L 453.988281 417.5 C 453.988281 384.351562 427.089844 357.46875 393.898438 357.46875 L 60.101562 357.46875 C 26.910156 357.46875 0 330.601562 0 297.441406 L 0 283.808594 Z M 0 439.96875 "/>
<path style=" stroke:none;fill-rule:nonzero;fill:url(#linear3);" d="M 0 439.96875 C 0 473.121094 26.898438 500 60.089844 500 L 393.898438 500 C 427.089844 500 453.988281 473.121094 453.988281 439.96875 L 453.988281 417.5 C 453.988281 384.351562 427.089844 357.46875 393.898438 357.46875 L 60.101562 357.46875 C 26.910156 357.46875 0 330.601562 0 297.441406 L 0 283.808594 Z M 0 439.96875 "/>
<path style=" stroke:none;fill-rule:nonzero;fill:rgb(73.725492%,49.803922%,100%);fill-opacity:1;" d="M 0 223.109375 C 0 256.261719 26.898438 283.140625 60.089844 283.140625 L 393.898438 283.140625 C 427.089844 283.140625 453.988281 310.019531 453.988281 343.171875 L 453.988281 358.96875 L 453.988281 219.859375 C 453.988281 186.710938 427.089844 159.828125 393.898438 159.828125 L 53.421875 159.828125 C 23.921875 159.828125 0 135.941406 0 106.46875 Z M 0 223.109375 "/>
<path style=" stroke:none;fill-rule:nonzero;fill:url(#linear4);" d="M 0 223.109375 C 0 256.261719 26.898438 283.140625 60.089844 283.140625 L 393.898438 283.140625 C 427.089844 283.140625 453.988281 310.019531 453.988281 343.171875 L 453.988281 358.96875 L 453.988281 219.859375 C 453.988281 186.710938 427.089844 159.828125 393.898438 159.828125 L 53.421875 159.828125 C 23.921875 159.828125 0 135.941406 0 106.46875 Z M 0 223.109375 "/>
<path style=" stroke:none;fill-rule:nonzero;fill:url(#linear5);" d="M 0 223.109375 C 0 256.261719 26.898438 283.140625 60.089844 283.140625 L 393.898438 283.140625 C 427.089844 283.140625 453.988281 310.019531 453.988281 343.171875 L 453.988281 358.96875 L 453.988281 219.859375 C 453.988281 186.710938 427.089844 159.828125 393.898438 159.828125 L 53.421875 159.828125 C 23.921875 159.828125 0 135.941406 0 106.46875 Z M 0 223.109375 "/>
<path style=" stroke:none;fill-rule:nonzero;fill:url(#radial3);" d="M 0 223.109375 C 0 256.261719 26.898438 283.140625 60.089844 283.140625 L 393.898438 283.140625 C 427.089844 283.140625 453.988281 310.019531 453.988281 343.171875 L 453.988281 358.96875 L 453.988281 219.859375 C 453.988281 186.710938 427.089844 159.828125 393.898438 159.828125 L 53.421875 159.828125 C 23.921875 159.828125 0 135.941406 0 106.46875 Z M 0 223.109375 "/>
<path style=" stroke:none;fill-rule:nonzero;fill:rgb(59.215689%,29.803923%,100%);fill-opacity:1;" d="M 0 326.5 C 0 359.648438 26.898438 386.53125 60.089844 386.53125 L 397.921875 386.53125 C 428.890625 386.53125 453.988281 411.609375 453.988281 442.550781 C 453.988281 479.558594 453.988281 395.679688 453.988281 333.25 C 453.988281 300.101562 427.089844 273.230469 393.898438 273.230469 L 60.101562 273.230469 C 26.910156 273.230469 0 246.351562 0 213.199219 L 0 199.691406 Z M 0 326.5 "/>
<path style=" stroke:none;fill-rule:nonzero;fill:rgb(66.274512%,40.000001%,100%);fill-opacity:0.34902;" d="M 0 326.5 C 0 359.648438 26.898438 386.53125 60.089844 386.53125 L 397.921875 386.53125 C 428.890625 386.53125 453.988281 411.609375 453.988281 442.550781 C 453.988281 479.558594 453.988281 395.679688 453.988281 333.25 C 453.988281 300.101562 427.089844 273.230469 393.898438 273.230469 L 60.101562 273.230469 C 26.910156 273.230469 0 246.351562 0 213.199219 L 0 199.691406 Z M 0 326.5 "/>
<path style=" stroke:none;fill-rule:nonzero;fill:url(#linear6);" d="M 0 326.5 C 0 359.648438 26.898438 386.53125 60.089844 386.53125 L 397.921875 386.53125 C 428.890625 386.53125 453.988281 411.609375 453.988281 442.550781 C 453.988281 479.558594 453.988281 395.679688 453.988281 333.25 C 453.988281 300.101562 427.089844 273.230469 393.898438 273.230469 L 60.101562 273.230469 C 26.910156 273.230469 0 246.351562 0 213.199219 L 0 199.691406 Z M 0 326.5 "/>
<path style=" stroke:none;fill-rule:nonzero;fill:url(#linear7);" d="M 0 326.5 C 0 359.648438 26.898438 386.53125 60.089844 386.53125 L 397.921875 386.53125 C 428.890625 386.53125 453.988281 411.609375 453.988281 442.550781 C 453.988281 479.558594 453.988281 395.679688 453.988281 333.25 C 453.988281 300.101562 427.089844 273.230469 393.898438 273.230469 L 60.101562 273.230469 C 26.910156 273.230469 0 246.351562 0 213.199219 L 0 199.691406 Z M 0 326.5 "/>
<path style=" stroke:none;fill-rule:nonzero;fill:url(#linear8);" d="M 0 326.5 C 0 359.648438 26.898438 386.53125 60.089844 386.53125 L 397.921875 386.53125 C 428.890625 386.53125 453.988281 411.609375 453.988281 442.550781 L 453.988281 333.25 C 453.988281 300.101562 427.089844 273.230469 393.898438 273.230469 L 60.101562 273.230469 C 26.910156 273.230469 0 246.351562 0 213.199219 L 0 199.691406 Z M 0 326.5 "/>
</g>
</svg>
