<?xml version="1.0" encoding="UTF-8" standalone="no"?>
<svg
   version="1.2"
   viewBox="0 0 173.7 173.7"
   width="173.7"
   height="173.7"
   id="svg2"
   sodipodi:docname="photopea.svg"
   inkscape:version="1.4.2 (ebf0e940d0, 2025-05-08)"
   xmlns:inkscape="http://www.inkscape.org/namespaces/inkscape"
   xmlns:sodipodi="http://sodipodi.sourceforge.net/DTD/sodipodi-0.dtd"
   xmlns="http://www.w3.org/2000/svg"
   xmlns:svg="http://www.w3.org/2000/svg">
  <defs
     id="defs2" />
  <sodipodi:namedview
     id="namedview2"
     pagecolor="#505050"
     bordercolor="#eeeeee"
     borderopacity="1"
     inkscape:showpageshadow="0"
     inkscape:pageopacity="0"
     inkscape:pagecheckerboard="0"
     inkscape:deskcolor="#505050"
     inkscape:zoom="0.71378501"
     inkscape:cx="306.81507"
     inkscape:cy="133.79379"
     inkscape:window-width="1920"
     inkscape:window-height="1011"
     inkscape:window-x="0"
     inkscape:window-y="0"
     inkscape:window-maximized="1"
     inkscape:current-layer="svg2" />
  <style
     id="style1">.A{fill:#e6e6e6}.B{fill:#18a497}</style>
  <path
     fill-rule="evenodd"
     class="B"
     d="m 28.3,0 h 117.2 c 15.6,0 28.2,12.7 28.2,28.3 v 117.2 c 0,15.6 -12.6,28.2 -28.2,28.2 H 46.3 L 45.9,98.9 q 0,-0.3 0,-0.6 C 45.9,70 68.4,47 96.3,47 c 16.7,0 30.3,13.8 30.3,30.8 0,17 -13.6,30.8 -30.3,30.8 -5.6,0 -10.1,-4.6 -10.1,-10.3 0,-5.6 4.5,-10.2 10.1,-10.2 5.6,0 10.1,-4.6 10.1,-10.3 0,-5.6 -4.5,-10.2 -10.1,-10.2 -16.7,0 -30.2,13.7 -30.2,30.7 0,17.1 13.5,30.8 30.2,30.8 27.9,0 50.4,-22.9 50.4,-51.3 0,-28.3 -22.5,-51.3 -50.4,-51.3 -39,0 -70.6,32.1 -70.6,71.8 q 0,0.4 0,0.7 h -0.1 l 0.3,74.6 C 11.4,172.4 0,160.3 0,145.5 V 28.3 C 0,12.7 12.6,0 28.3,0 Z"
     id="path2" />
</svg>
